<mxfile host="65bd71144e">
    <diagram id="6Pxc_1iFn4GMFRx5W5ji" name="PÃ¡gina-1">
        <mxGraphModel dx="1118" dy="790" grid="1" gridSize="10" guides="1" tooltips="1" connect="1" arrows="1" fold="1" page="1" pageScale="1" pageWidth="827" pageHeight="1169" math="0" shadow="0">
            <root>
                <mxCell id="0"/>
                <mxCell id="1" parent="0"/>
                <mxCell id="4" value="" style="edgeStyle=none;html=1;" edge="1" parent="1" source="2" target="3">
                    <mxGeometry relative="1" as="geometry"/>
                </mxCell>
                <mxCell id="2" value="Inicio" style="ellipse;whiteSpace=wrap;html=1;" vertex="1" parent="1">
                    <mxGeometry x="354" y="40" width="120" height="80" as="geometry"/>
                </mxCell>
                <mxCell id="6" value="" style="edgeStyle=none;html=1;" edge="1" parent="1" source="3" target="5">
                    <mxGeometry relative="1" as="geometry"/>
                </mxCell>
                <mxCell id="3" value="Total_bill_10000 = 0&lt;br&gt;total_bill_2000 = 0&lt;br&gt;total_mon_100 = 0" style="whiteSpace=wrap;html=1;" vertex="1" parent="1">
                    <mxGeometry x="354" y="210" width="120" height="60" as="geometry"/>
                </mxCell>
                <mxCell id="8" value="" style="edgeStyle=none;html=1;" edge="1" parent="1" source="5" target="7">
                    <mxGeometry relative="1" as="geometry"/>
                </mxCell>
                <mxCell id="5" value="cheque" style="shape=parallelogram;perimeter=parallelogramPerimeter;whiteSpace=wrap;html=1;fixedSize=1;" vertex="1" parent="1">
                    <mxGeometry x="354" y="350" width="120" height="60" as="geometry"/>
                </mxCell>
                <mxCell id="10" value="" style="edgeStyle=none;html=1;" edge="1" parent="1" source="7" target="9">
                    <mxGeometry relative="1" as="geometry"/>
                </mxCell>
                <mxCell id="7" value="" style="shape=waypoint;sketch=0;size=6;pointerEvents=1;points=[];fillColor=default;resizable=0;rotatable=0;perimeter=centerPerimeter;snapToPoint=1;" vertex="1" parent="1">
                    <mxGeometry x="394" y="500" width="40" height="40" as="geometry"/>
                </mxCell>
                <mxCell id="12" value="" style="edgeStyle=none;html=1;" edge="1" parent="1" source="9" target="11">
                    <mxGeometry relative="1" as="geometry"/>
                </mxCell>
                <mxCell id="20" value="" style="edgeStyle=none;html=1;" edge="1" parent="1" source="9" target="19">
                    <mxGeometry relative="1" as="geometry"/>
                </mxCell>
                <mxCell id="9" value="cheque != 0" style="rhombus;whiteSpace=wrap;html=1;sketch=0;" vertex="1" parent="1">
                    <mxGeometry x="374" y="600" width="80" height="80" as="geometry"/>
                </mxCell>
                <mxCell id="14" value="" style="edgeStyle=none;html=1;" edge="1" parent="1" source="11" target="13">
                    <mxGeometry relative="1" as="geometry"/>
                </mxCell>
                <mxCell id="11" value="b1= [cheque/ 10000]&lt;br&gt;R = cheque - b1 * 10000&lt;br&gt;b2 = [ R/2000]&lt;br&gt;R = R - b2 * 2000&lt;br&gt;b3 = [ R / 100 ]&lt;br&gt;tb1 = tb1 + b1&lt;br&gt;tb2 = tb2 + b2&lt;br&gt;tb3 = tb3 + b3" style="whiteSpace=wrap;html=1;sketch=0;" vertex="1" parent="1">
                    <mxGeometry x="316" y="790" width="195" height="140" as="geometry"/>
                </mxCell>
                <mxCell id="16" value="" style="edgeStyle=none;html=1;" edge="1" parent="1" source="13" target="15">
                    <mxGeometry relative="1" as="geometry"/>
                </mxCell>
                <mxCell id="13" value="CH, b1 , b2, b3&amp;nbsp;&amp;nbsp;" style="shape=document;whiteSpace=wrap;html=1;boundedLbl=1;sketch=0;" vertex="1" parent="1">
                    <mxGeometry x="353.5" y="1040" width="120" height="80" as="geometry"/>
                </mxCell>
                <mxCell id="18" value="" style="edgeStyle=none;html=1;entryX=0.35;entryY=0.475;entryDx=0;entryDy=0;entryPerimeter=0;" edge="1" parent="1" source="15" target="7">
                    <mxGeometry relative="1" as="geometry">
                        <mxPoint x="140" y="790" as="targetPoint"/>
                        <Array as="points">
                            <mxPoint x="160" y="1240"/>
                            <mxPoint x="160" y="520"/>
                        </Array>
                    </mxGeometry>
                </mxCell>
                <mxCell id="15" value="CH" style="shape=parallelogram;perimeter=parallelogramPerimeter;whiteSpace=wrap;html=1;fixedSize=1;sketch=0;" vertex="1" parent="1">
                    <mxGeometry x="353.5" y="1210" width="120" height="60" as="geometry"/>
                </mxCell>
                <mxCell id="22" value="" style="edgeStyle=none;html=1;" edge="1" parent="1" source="19" target="21">
                    <mxGeometry relative="1" as="geometry"/>
                </mxCell>
                <mxCell id="19" value="tb1, tb2, tb3" style="shape=document;whiteSpace=wrap;html=1;boundedLbl=1;sketch=0;" vertex="1" parent="1">
                    <mxGeometry x="560" y="600" width="120" height="80" as="geometry"/>
                </mxCell>
                <mxCell id="21" value="FIN" style="ellipse;whiteSpace=wrap;html=1;sketch=0;" vertex="1" parent="1">
                    <mxGeometry x="560" y="770" width="120" height="60" as="geometry"/>
                </mxCell>
            </root>
        </mxGraphModel>
    </diagram>
</mxfile>